# xmcd
#
# Track frame offsets:
#	150
#	22045
#	36013
#	52737
#	69430
#	85684
#	97787
#	113006
#	132986
#	149360
#	163505
#	183009
#	203098
#	218230
#	233986
#
# Disc length: 3317 seconds
#
# Revision: 0
# Processed by: cddbd v1.5.1PL2 Copyright (c) Steve Scherf et al.
# Submitted via: dBpowerAMP V4.0
#
DISCID=be0cf30f
DTITLE=Galpão Gaúcho - Vol. 8 - Galpão Gaúcho - Vol. 8
DYEAR=1900
DGENRE=Country
TTITLE0=Apostando na Sorte (Chiquito e Bordoneio)
TTITLE1=Sou da Lida e Sou da Vida (Tchê Garotos)
TTITLE2=Quando Eu Abro Minha Cordeona (Pedro Ortaça)
TTITLE3=Gineteando Um Chamamé (Os Serranos)
TTITLE4=O Bom do Baile (Candieiro)
TTITLE5=Chaqüaia Seu Gaiteiro (Gaudérios do Vale)
TTITLE6=O Mouro e a Ruana (Os Monarcas)
TTITLE7=Vanera Cintura de Sapo (Rui Biriva)
TTITLE8=Tiro de Laço (Grupo Raízes)
TTITLE9=Além Fronteiras (Grupo Reponte)
TTITLE10=Festa Gaúcha (Os Galponeiros)
TTITLE11=Oração de Gaiteiro (Luiz Carlos Borges)
TTITLE12=É Isso Tchê (Grupo Minuano)
TTITLE13=Cantando o Rio Grande (Os Tiranos)
TTITLE14=Dom Ortaça (Alberto e Gabriel Ortaça)
EXTD=
EXTT0=
EXTT1=
EXTT2=
EXTT3=
EXTT4=
EXTT5=
EXTT6=
EXTT7=
EXTT8=
EXTT9=
EXTT10=
EXTT11=
EXTT12=
EXTT13=
EXTT14=
PLAYORDER=
